<?xml version="1.0" standalone="no"?>
<!DOCTYPE svg PUBLIC "-//W3C//DTD SVG 20010904//EN"
 "http://www.w3.org/TR/2001/REC-SVG-20010904/DTD/svg10.dtd">
<svg version="1.0" xmlns="http://www.w3.org/2000/svg"
 width="533.000000pt" height="533.000000pt" viewBox="0 0 533.000000 533.000000"
 preserveAspectRatio="xMidYMid meet">
<metadata>
Created by potrace 1.14, written by Peter Selinger 2001-2017
</metadata>
<g transform="translate(0.000000,533.000000) scale(0.100000,-0.100000)"
fill="#000000" stroke="none">
<path d="M2115 5201 c-130 -30 -296 -79 -307 -90 -4 -3 402 -416 902 -916
l910 -910 0 896 0 896 -137 46 c-76 26 -185 59 -243 74 l-105 26 -450 3 -450
3 -120 -28z"/>
<path d="M1329 4886 c-196 -122 -328 -226 -485 -387 -125 -128 -161 -168 -225
-254 -448 -594 -617 -1354 -463 -2077 9 -43 20 -78 23 -78 3 0 467 461 1031
1025 l1025 1025 -400 400 c-220 220 -404 400 -410 400 -5 0 -49 -24 -96 -54z"/>
<path d="M3940 3330 l0 -1590 549 0 549 0 45 138 c85 254 123 461 134 723 35
913 -410 1761 -1189 2263 l-88 56 0 -1590z"/>
<path d="M842 2217 l-534 -534 50 -100 c216 -437 523 -781 935 -1046 l87 -57
0 1135 c0 624 -1 1135 -3 1135 -1 0 -242 -240 -535 -533z"/>
<path d="M1700 871 l0 -549 153 -50 c917 -305 1924 -68 2610 613 148 147 252
277 371 463 l46 72 -1590 0 -1590 0 0 -549z"/>
</g>
</svg>
