<svg xmlns="http://www.w3.org/2000/svg" xmlns:xlink="http://www.w3.org/1999/xlink" width="175" height="61" viewBox="0 0 175 61"><defs><clipPath id="a"><rect width="175" height="61" fill="#fff" transform="translate(0 5.769)"/></clipPath><linearGradient id="b" x1="-2.142" x2="1.595" y1=".507" y2=".495" gradientUnits="objectBoundingBox"><stop offset=".3" stop-color="#188eb2"/><stop offset=".411" stop-color="#19a0bb"/><stop offset=".542" stop-color="#1baec2"/><stop offset=".705" stop-color="#1bb6c6"/><stop offset="1" stop-color="#1cb9c8"/></linearGradient><linearGradient id="c" x1="-1.499" x2="1.624" y1=".516" y2=".491" gradientUnits="objectBoundingBox"><stop offset=".254" stop-color="#188eb2"/><stop offset=".373" stop-color="#19a0bb"/><stop offset=".512" stop-color="#1baec2"/><stop offset=".686" stop-color="#1bb6c6"/><stop offset="1" stop-color="#1cb9c8"/></linearGradient><linearGradient id="d" x1="3.177" x2="4.298" y1="-2.182" y2="-2.182" gradientUnits="objectBoundingBox"><stop offset="0" stop-color="#188eb2"/><stop offset=".159" stop-color="#19a0bb"/><stop offset=".345" stop-color="#1baec2"/><stop offset=".579" stop-color="#1bb6c6"/><stop offset="1" stop-color="#1cb9c8"/></linearGradient><linearGradient id="e" x1="31.225" x2="32.328" y1="-2.031" y2="-2.031" xlink:href="#d"/><linearGradient id="f" x1="72.729" x2="74.262" y1="-2.804" y2="-3.099" xlink:href="#d"/><linearGradient id="g" x1="81.728" x2="83.278" y1="-4.881" y2="-5.176" xlink:href="#d"/><linearGradient id="h" x1="81.748" x2="83.343" y1="-6.554" y2="-6.85" xlink:href="#d"/><linearGradient id="i" x1="44.044" x2="44.373" y1="-6.492" y2="-6.788" xlink:href="#d"/><linearGradient id="j" x1="39.94" x2="40.276" y1="-14.49" y2="-14.785" xlink:href="#d"/><linearGradient id="k" x1="78.76" x2="80.329" y1="-1.261" y2="-1.557" xlink:href="#d"/><linearGradient id="l" x1="0" x2="1" y1=".5" y2=".5" xlink:href="#d"/></defs><g clip-path="url(#a)" transform="translate(0 -5.769)"><text fill="#fff" font-family="RobotoSlab-Bold, Roboto Slab" font-size="50" font-weight="700" letter-spacing="-.01em" transform="translate(60.925 52)"><tspan x="0" y="0">Agar</tspan></text><g transform="translate(0.49 7.282)"><path fill="none" d="M482.618,251.906l-.047.03Z" transform="translate(-435.487 -233.405)"/><path fill="#1cb5c6" d="M479.737,613.088l0,.549c-.017-.149-.034-.3-.051-.468C479.7,613.141,479.718,613.117,479.737,613.088Z" transform="translate(-432.92 -554.2)"/><path fill="#1cb9c8" d="M535.546,237.569h-.092l0-.193C535.486,237.439,535.516,237.507,535.546,237.569Z" transform="translate(-482.457 -220.5)"/><path fill="url(#b)" d="M500.408,295.694a26.635,26.635,0,0,1-.411,2.826c-.118.6-.253,1.206-.411,1.8-.129.465-.265.926-.417,1.387-.124.392-.265.784-.411,1.172-.129.349-.27.7-.411,1.047-.135.323-.27.646-.417.965-.129.284-.27.564-.411.849s-.27.539-.411.81c-.135.25-.276.5-.417.745s-.27.474-.411.706-.276.444-.411.668-.276.422-.417.633-.27.4-.411.6-.27.392-.411.59c-.135.181-.276.358-.417.534s-.27.362-.411.539c-.056.069-.1.138-.158.2,0,0-.073-.982-.253-2.671v-.491c.141-.246.276-.5.411-.741s.281-.5.411-.75c.146-.276.276-.56.417-.84s.281-.573.411-.862c.146-.323.276-.651.411-.978.146-.358.281-.711.417-1.069.141-.392.281-.784.411-1.18.146-.457.287-.918.411-1.379.158-.582.293-1.163.417-1.749.18-.875.31-1.758.411-2.641a28.56,28.56,0,0,0,0-6.355c-.084-.771-.191-1.538-.338-2.3-.028-.125-.051-.246-.073-.371-.135-.672-.276-1.34-.417-1.995-.135-.625-.27-1.236-.411-1.84-.135-.586-.276-1.159-.411-1.719s-.276-1.1-.417-1.633-.276-1.051-.411-1.555-.276-1.008-.411-1.486c-.146-.5-.282-.978-.417-1.43-.141-.491-.281-.952-.411-1.379-.113-.37-.22-.719-.321-1.038h2.73c.022.069.045.134.068.2.124.4.265.844.411,1.327.129.431.27.892.417,1.379.13.457.27.931.411,1.43.135.478.27.978.411,1.491s.276,1.021.417,1.555.27,1.081.411,1.637.276,1.142.411,1.732c.141.608.281,1.228.417,1.853.141.664.276,1.331.411,2.012.011.048.017.095.028.142a25.858,25.858,0,0,1,.383,2.77A26.805,26.805,0,0,1,500.408,295.694Z" transform="translate(-445.1 -252.422)"/><path fill="url(#c)" d="M472.108,105.018v.172h-1.621c-.011,0-.017,0-.028,0a1.628,1.628,0,0,0-.771.215l-.056-.112-.411-.823-.028-.056c-.129-.263-.259-.526-.388-.784-.141-.293-.276-.582-.411-.87s-.281-.595-.411-.9-.282-.62-.417-.926c-.141-.323-.276-.642-.411-.965s-.281-.668-.411-1c-.146-.349-.282-.7-.417-1.038-.141-.362-.281-.724-.411-1.077-.146-.379-.281-.754-.411-1.124-.146-.4-.282-.788-.417-1.172-.146-.418-.281-.827-.411-1.228-.146-.448-.287-.879-.411-1.292-.152-.478-.287-.935-.417-1.366-.152-.521-.287-1.008-.411-1.456-.017-.06-.034-.121-.051-.177.017-.026.034-.047.051-.069.141-.2.281-.388.411-.564.146-.19.282-.366.417-.53.146-.19.281-.353.411-.5.158-.19.293-.349.411-.478.242-.271.388-.422.417-.448l.006-.009s.129.625.405,1.715c.113.448.248.974.411,1.573.124.444.259.931.417,1.452.124.431.265.888.411,1.366.129.414.265.844.411,1.288.129.4.27.81.417,1.232.129.383.265.776.411,1.176.135.37.27.745.411,1.124.135.358.27.715.417,1.082.129.34.27.689.411,1.038.135.332.27.664.411,1,.135.319.27.642.417.965.13.31.27.62.411.935s.27.6.411.9c.135.289.276.577.417.87S471.967,104.738,472.108,105.018Z" transform="translate(-418.449 -86.449)"/><path fill="url(#d)" d="M155.812,227.737,151.6,225.3a5.245,5.245,0,0,1-7.377-4.263l-4.3-2.482-4.216,2.432a5.243,5.243,0,0,1-7.365,4.249l-4.309,2.486,0,4.88a5.245,5.245,0,0,1,0,8.553l0,4.911,4.038,2.333a5.2,5.2,0,0,1,7.423,4.289l4.422,2.555,4.08-2.354a5.249,5.249,0,0,1,7.476-4.313l4.334-2.5,0-4.894a5.247,5.247,0,0,1,0-8.581Zm-5.795,3.343,0,11.654-10.095,5.823-10.091-5.831,0-11.654,10.095-5.823Z" transform="translate(-117.04 -203.787)"/><path fill="url(#e)" d="M206.862,318l0,7.652,6.625,3.828,6.628-3.824,0-7.652-6.625-3.828Z" transform="translate(-190.605 -288.713)"/><g><path fill="url(#f)" d="M388.158,438.151l-.305-.529,4.785-2.76,0-5.372h.61l0,5.725Z" transform="translate(36.493 38.358) translate(-387.853 -429.489)"/></g><g><path fill="url(#g)" d="M96.779,267.079h-.61l0-5.726,5-2.885.305.529-4.7,2.709Z" transform="translate(3.877 19.235) translate(-96.169 -258.467)"/></g><g><path fill="url(#h)" d="M100.895,437.839l-4.78-2.762,0-5.726h.61l0,5.375,4.474,2.585Z" transform="translate(3.871 38.343) translate(-96.115 -429.351)"/></g><g><path fill="url(#i)" d="M231.821,189.608l-4.7-2.716-4.617,2.663-.305-.528,4.922-2.84,5.006,2.893Z" transform="translate(17.97 11.153) translate(-222.198 -186.187)"/></g><g><path fill="url(#j)" d="M225.106,550.9l-5.157-2.98.305-.528,4.852,2.8,4.522-2.609.305.528Z" transform="translate(17.718 51.542) translate(-219.949 -547.396)"/></g><g><path fill="url(#k)" d="M394.75,267.59h-.61l0-5.374-4.6-2.661.305-.528,4.909,2.837Z" transform="translate(36.681 19.297) translate(-389.537 -259.027)"/></g><circle cx="3.944" cy="3.944" r="3.944" fill="#78f486" transform="translate(0 29.151)"/><circle cx="3.944" cy="3.944" r="3.944" fill="#d85252" transform="translate(9.505 12.712)"/><path fill="none" d="M152.214,258.432l-.006,14.707,12.734,7.358,12.739-7.348.005-14.707-12.734-7.358Z" transform="translate(-142.065 -232.674)"/><path fill="url(#l)" d="M388.476,123.526c-.011-.069-.028-.138-.034-.2-.062-.409-.124-.814-.2-1.219-.056-.3-.118-.6-.18-.9-.017-.073-.028-.155-.045-.228-.118-.582-.242-1.155-.366-1.719-.023-.09-.039-.177-.062-.267-.113-.522-.231-1.034-.349-1.538-.028-.1-.051-.207-.073-.31-.113-.47-.231-.931-.343-1.387l-.085-.336c-.107-.431-.22-.853-.327-1.267l-.1-.375c-.1-.4-.208-.784-.31-1.159-.039-.138-.079-.267-.113-.4-.1-.366-.2-.72-.3-1.064-.039-.146-.084-.293-.124-.435-.1-.336-.2-.663-.287-.978-.051-.159-.1-.306-.141-.457-.1-.314-.186-.616-.27-.9-.056-.168-.107-.327-.152-.482-.1-.3-.18-.573-.265-.827-.056-.181-.112-.349-.163-.5-.017-.06-.039-.121-.056-.177a.752.752,0,0,1,.056-.595,1.015,1.015,0,0,1,.163-.228,1.178,1.178,0,0,1,.265-.194,1.1,1.1,0,0,1,.152-.073,1.358,1.358,0,0,1,.27-.082c.045-.009.1-.013.141-.017a1.27,1.27,0,0,1,.18-.017h1.706l-.236-.478c-.028-.056-.056-.116-.085-.172-.113-.228-.22-.457-.327-.681-.034-.069-.067-.142-.1-.211-.107-.224-.208-.448-.31-.672-.039-.082-.079-.164-.113-.246-.1-.224-.2-.448-.3-.668-.039-.095-.084-.189-.124-.284-.1-.22-.191-.444-.287-.664-.045-.108-.1-.215-.141-.319-.09-.224-.18-.44-.27-.659-.051-.121-.107-.246-.152-.366-.09-.215-.18-.435-.265-.646-.056-.142-.107-.28-.163-.418-.085-.215-.169-.427-.248-.638-.062-.159-.118-.315-.18-.465-.079-.215-.158-.427-.231-.633-.068-.177-.129-.349-.191-.521-.079-.207-.152-.414-.225-.62s-.135-.388-.2-.582-.141-.414-.208-.612c-.073-.22-.146-.439-.22-.651s-.129-.405-.191-.6c-.084-.246-.158-.487-.231-.724-.045-.146-.1-.293-.135-.435-.017.03-.034.065-.051.095v-.25c-.085-.28-.163-.551-.242-.81-.051-.168-.1-.332-.141-.491-.1-.353-.2-.689-.287-1q-.05-.194-.1-.375c-.124-.465-.231-.883-.321-1.245-.27-1.077-.4-1.693-.4-1.693a.18.18,0,0,0-.028.03c-.056.06-.208.215-.428.461-.118.138-.265.306-.422.5-.135.159-.276.328-.428.526-.135.168-.276.358-.428.556-.135.181-.276.379-.422.582s-.281.4-.428.62-.281.426-.428.655-.282.453-.422.694-.287.487-.428.741-.281.526-.422.8-.287.569-.428.866-.287.625-.428.948q-.22.517-.422,1.06c-.152.4-.293.806-.428,1.228-.158.487-.3.987-.428,1.5-.031.123-.056.251-.085.375a5.234,5.234,0,0,1,2.27,6.509c.141-.052.283-.1.422-.167l5.313,3.07,0,6.144c-.081.057-.155.124-.233.184a5.241,5.241,0,0,1-.148,10.352c.123.1.246.2.377.293l0,6.176-1.805,1.041c.1.567.2,1.127.283,1.673.158.952.3,1.87.428,2.744.163,1.1.3,2.137.422,3.085.186,1.422.327,2.65.428,3.623.169,1.572.236,2.481.236,2.481.068-.077.124-.164.191-.246.146-.181.282-.37.422-.556s.293-.366.428-.556.282-.409.428-.612.287-.409.422-.616c.152-.224.287-.448.428-.672s.287-.457.428-.689c.062-.1.124-.207.18-.315.085-.142.163-.289.242-.435.146-.259.293-.513.428-.771.09-.168.163-.34.248-.508.062-.121.118-.241.18-.362.034-.078.073-.155.113-.228.107-.228.208-.457.31-.685l.1-.233c.062-.142.118-.284.175-.422.051-.121.107-.237.152-.357l.085-.207c.124-.314.231-.629.343-.944.022-.069.045-.138.073-.2.124-.375.242-.745.349-1.12.022-.069.039-.133.062-.2.135-.465.253-.935.366-1.409.017-.065.034-.129.045-.194.152-.663.281-1.331.383-2,.011-.09.017-.181.034-.271A27.347,27.347,0,0,0,388.476,123.526Z" transform="translate(-338.943 -86.449)"/><circle cx="3.945" cy="3.945" r="3.945" fill="#f9bb69" transform="translate(28.39 12.751)"/><circle cx="3.944" cy="3.944" r="3.944" fill="#b77c66" transform="translate(37.852 29.098)"/><circle cx="3.944" cy="3.944" r="3.944" fill="#759fbb" transform="translate(28.252 45.604)"/><circle cx="3.945" cy="3.945" r="3.945" fill="#f4d4ae" transform="translate(9.288 45.418)"/></g></g></svg>